<?xml version="1.0" ?><!DOCTYPE svg  PUBLIC '-//W3C//DTD SVG 1.1//EN'  'http://www.w3.org/Graphics/SVG/1.1/DTD/svg11.dtd'><svg enable-background="new 0 0 64 64" height="64px" id="RAINY" version="1.1" viewBox="0 0 64 64" width="64px" xml:space="preserve" xmlns="http://www.w3.org/2000/svg" xmlns:xlink="http://www.w3.org/1999/xlink"><g><defs><rect height="63.957" id="SVGID_1_" width="63.957" x="0.011" y="0.021"/></defs><clipPath id="SVGID_2_"><use overflow="visible" xlink:href="#SVGID_1_"/></clipPath><path clip-path="url(#SVGID_2_)" d="M45.572,39.405H17.274c-5.547,0-10.06-4.513-10.06-10.06   c0-5.547,4.513-10.06,10.06-10.06c0.66,0,1.336,0.079,2.048,0.242c1.901-5.295,6.971-8.914,12.658-8.914   c4.791,0,9.159,2.516,11.579,6.616c0.713-0.141,1.364-0.208,2.013-0.208c6.171,0,11.191,5.021,11.191,11.191   C56.764,34.385,51.743,39.405,45.572,39.405z M17.274,21.285c-4.445,0-8.061,3.616-8.061,8.061s3.616,8.061,8.061,8.061h28.298   c5.068,0,9.192-4.124,9.192-9.194c0-5.069-4.124-9.193-9.192-9.193c-0.699,0-1.421,0.102-2.274,0.32   c-0.452,0.115-0.921-0.096-1.136-0.509c-1.981-3.835-5.881-6.217-10.182-6.217c-5.125,0-9.663,3.453-11.033,8.397   c-0.072,0.261-0.248,0.481-0.486,0.611c-0.238,0.129-0.517,0.154-0.778,0.075C18.794,21.416,18.028,21.285,17.274,21.285z    M40.851,54.228l2.498-9.993c0.133-0.535-0.191-1.078-0.728-1.213c-0.547-0.128-1.08,0.191-1.212,0.729l-2.499,9.993   c-0.133,0.535,0.191,1.077,0.729,1.212c0.082,0.02,0.162,0.029,0.242,0.029C40.329,54.984,40.737,54.682,40.851,54.228z    M31.71,54.228l2.498-9.993c0.135-0.535-0.19-1.078-0.727-1.213c-0.54-0.134-1.079,0.191-1.211,0.729l-2.499,9.993   c-0.135,0.535,0.191,1.077,0.727,1.212c0.081,0.02,0.163,0.029,0.243,0.029C31.19,54.984,31.597,54.682,31.71,54.228z    M22.568,54.228l2.499-9.993c0.134-0.535-0.191-1.078-0.727-1.213c-0.541-0.134-1.079,0.191-1.211,0.729l-2.498,9.993   c-0.135,0.535,0.191,1.077,0.727,1.212c0.081,0.02,0.163,0.029,0.243,0.029C22.048,54.984,22.455,54.682,22.568,54.228z" fill="#fff"/></g></svg>
