<?xml version="1.0" ?><!DOCTYPE svg  PUBLIC '-//W3C//DTD SVG 1.1//EN'  'http://www.w3.org/Graphics/SVG/1.1/DTD/svg11.dtd'><svg enable-background="new 0 0 64 64" height="64px" id="STORMY" version="1.1" viewBox="0 0 64 64" width="64px" xml:space="preserve" xmlns="http://www.w3.org/2000/svg" xmlns:xlink="http://www.w3.org/1999/xlink"><g><defs><rect height="63.957" id="SVGID_1_" width="63.957" x="0.011" y="0.021"/></defs><clipPath id="SVGID_2_"><use overflow="visible" xlink:href="#SVGID_1_"/></clipPath><path clip-path="url(#SVGID_2_)" d="M29.364,54.813c-0.168,0-0.336-0.041-0.49-0.129   c-0.393-0.22-0.59-0.679-0.478-1.116l1.092-4.292h-1.973c-0.402,0-0.765-0.242-0.921-0.612c-0.156-0.371-0.074-0.799,0.207-1.086   l7.102-7.255c0.315-0.324,0.81-0.396,1.204-0.172c0.395,0.221,0.589,0.68,0.479,1.117l-1.094,4.294h1.972   c0.402,0,0.765,0.242,0.921,0.612c0.156,0.371,0.074,0.799-0.207,1.086l-7.098,7.253C29.885,54.709,29.625,54.813,29.364,54.813z    M29.891,47.276h0.882c0.308,0,0.599,0.143,0.789,0.387c0.189,0.244,0.255,0.561,0.179,0.859l-0.493,1.936l2.837-2.898h-0.881   c-0.308,0-0.6-0.143-0.79-0.386c-0.189-0.244-0.254-0.561-0.178-0.859l0.493-1.938L29.891,47.276z M45.572,39.405H17.274   c-5.547,0-10.061-4.513-10.061-10.06c0-5.547,4.514-10.06,10.061-10.06c0.66,0,1.336,0.079,2.048,0.242   c1.901-5.295,6.97-8.914,12.657-8.914c4.792,0,9.16,2.516,11.58,6.616c0.713-0.141,1.364-0.208,2.013-0.208   c6.171,0,11.191,5.021,11.191,11.191C56.764,34.385,51.743,39.405,45.572,39.405z M17.274,21.285c-4.445,0-8.062,3.616-8.062,8.061   s3.617,8.061,8.062,8.061h28.298c5.068,0,9.192-4.124,9.192-9.194c0-5.069-4.124-9.193-9.192-9.193   c-0.699,0-1.421,0.102-2.274,0.32c-0.452,0.115-0.921-0.096-1.136-0.509c-1.981-3.835-5.883-6.217-10.183-6.217   c-5.125,0-9.662,3.453-11.032,8.397c-0.072,0.261-0.248,0.481-0.486,0.611c-0.238,0.129-0.517,0.154-0.778,0.075   C18.806,21.419,18.017,21.285,17.274,21.285z" fill="#fff"/></g></svg>
